<svg xmlns="http://www.w3.org/2000/svg" version="1.0" width="400.000000pt" height="300.000000pt" viewBox="0 0 1280.000000 886.000000" preserveAspectRatio="xMidYMid meet">
    <metadata>
        Created by potrace 1.15, written by Peter Selinger 2001-2017
    </metadata>
    <g transform="translate(0.000000,886.000000) scale(0.100000,-0.100000)" fill="#000000" stroke="none">
        <path d="M8160 8853 c-469 -20 -930 -69 -1307 -138 -496 -92 -946 -261 -1434 -540 -208 -120 -566 -362 -879 -595 -157 -117 -449 -322 -650 -456 -532 -354 -717 -489 -968 -707 -134 -117 -367 -347 -442 -437 -41 -50 -30 -43 140 86 1226 929 2445 1535 3790 1883 518 134 1107 226 1740 273 235 17 1094 17 1340 0 484 -34 923 -86 1350 -159 l265 -45 440 -8 c477 -8 514 -12 700 -74 152 -51 363 -168 493 -273 24 -20 45 -33 47 -31 9 8 -123 164 -176 209 -122 103 -238 167 -486 270 -81 33 -201 85 -267 115 -796 365 -1745 571 -2866 624 -185 9 -663 11 -830 3z"/>
        <path d="M8550 8139 c-967 -33 -1870 -183 -2740 -456 -259 -81 -271 -85 -267 -90 3 -2 33 1 68 6 108 17 502 59 749 80 478 41 805 54 1335 54 864 1 1188 -30 2335 -219 543 -90 833 -135 837 -130 2 2 -25 11 -59 21 -228 63 -558 185 -667 247 -80 45 -136 92 -151 128 -11 28 -11 34 7 58 48 65 203 115 468 152 83 11 175 24 205 28 51 7 42 9 -130 30 -405 49 -787 77 -1240 92 -323 11 -414 11 -750 -1z"/>
        <path d="M6915 7629 c-876 -51 -1648 -241 -2490 -611 -308 -136 -907 -450 -1230 -646 -275 -167 -744 -486 -732 -498 1 -1 69 31 149 72 294 149 771 349 1211 508 1715 619 3546 865 5532 741 281 -18 721 -57 955 -86 122 -15 274 -22 585 -29 530 -12 655 -25 825 -84 80 -28 124 -53 189 -104 40 -33 43 -34 36 -11 -39 121 -261 220 -726 323 -189 42 -833 163 -1177 220 -534 90 -1066 149 -1777 197 -209 14 -1157 20 -1350 8z"/>
        <path d="M7785 7134 c-33 -2 -145 -8 -250 -14 -536 -31 -1040 -95 -1540 -195 -286 -57 -753 -175 -778 -195 -4 -4 64 -10 153 -13 625 -26 1394 -142 2350 -353 552 -123 964 -235 1353 -370 55 -19 101 -34 103 -34 3 0 -21 22 -53 49 -140 118 -222 227 -244 325 -58 262 392 528 1127 666 250 47 247 45 99 58 -648 59 -950 73 -1635 76 -344 2 -652 2 -685 0z"/>
        <path d="M2600 6571 c-42 -13 -84 -38 -109 -65 -14 -14 -30 -26 -36 -26 -16 0 -47 -36 -80 -95 -15 -27 -44 -69 -62 -94 -43 -56 -79 -127 -88 -172 -3 -19 1 -99 11 -179 12 -112 15 -186 10 -325 -9 -234 -13 -225 155 -325 137 -83 215 -140 299 -222 41 -39 110 -83 265 -167 414 -225 679 -382 820 -487 218 -163 297 -194 377 -147 45 26 46 53 6 99 -67 77 -196 149 -688 387 -85 41 -202 106 -260 144 -216 143 -538 421 -607 523 -23 36 -59 85 -78 110 -52 67 -122 214 -145 304 -60 238 10 452 226 685 50 54 53 61 33 60 -13 0 -35 -4 -49 -8z"/>
        <path d="M5089 6560 c-362 -20 -575 -61 -1109 -215 -140 -40 -361 -103 -491 -139 -349 -97 -565 -174 -752 -267 -91 -46 -200 -109 -195 -114 2 -2 39 5 83 16 440 106 1008 200 1500 248 1319 131 2676 54 4215 -239 255 -48 236 -45 530 -75 447 -46 626 -90 779 -190 30 -20 56 -33 58 -31 9 8 -34 69 -74 107 -156 148 -392 231 -1108 389 -176 39 -417 97 -535 130 -1000 276 -2113 422 -2901 380z"/>
        <path d="M5440 6074 c-268 -8 -800 -51 -816 -67 -2 -2 58 -9 134 -16 443 -38 984 -155 1342 -288 177 -66 364 -154 740 -348 373 -193 839 -419 847 -412 2 2 -15 26 -38 53 -22 27 -56 80 -75 119 -75 154 -28 282 151 410 163 117 428 207 678 231 37 4 65 9 63 11 -23 23 -1022 178 -1466 227 -542 61 -1143 92 -1560 80z"/>
        <path d="M3405 5859 c-188 -10 -312 -25 -484 -55 -118 -22 -336 -75 -347 -86 -1 -2 228 -3 509 -3 519 0 614 -4 1037 -46 940 -92 1986 -331 3090 -704 267 -90 758 -270 950 -349 47 -19 87 -32 90 -29 12 12 -77 73 -172 120 -146 72 -616 284 -793 358 -82 34 -233 91 -335 125 -235 80 -333 122 -660 280 -533 258 -748 321 -1249 365 -305 27 -1321 42 -1636 24z"/>
        <path d="M3015 5619 c-126 -3 -257 -7 -289 -8 -33 0 -57 -3 -55 -6 3 -2 59 -12 125 -20 1876 -240 3060 -879 3574 -1930 176 -359 267 -732 289 -1179 l8 -155 68 -76 c184 -206 469 -437 728 -591 376 -224 762 -367 1452 -538 638 -158 1066 -212 1600 -203 396 6 552 28 900 127 489 139 756 270 951 464 164 164 239 319 251 516 11 200 -61 377 -183 449 -19 11 -34 19 -34 17 0 -2 14 -33 30 -70 58 -128 74 -250 45 -359 -67 -256 -335 -477 -785 -647 -345 -131 -711 -202 -1265 -246 -296 -23 -851 -15 -1075 15 -419 58 -698 150 -1180 390 -423 211 -635 357 -770 533 -227 293 -395 679 -473 1088 -30 158 -32 510 -3 640 48 222 152 420 292 557 83 80 341 230 456 265 21 6 38 14 38 17 0 3 -79 39 -176 79 -1485 619 -3025 916 -4519 871z"/>
        <path d="M2622 5530 c36 -64 156 -221 236 -309 157 -173 386 -331 702 -482 290 -140 407 -201 502 -261 92 -59 158 -127 158 -163 0 -35 -40 -72 -92 -85 -49 -13 -89 -60 -201 -236 -34 -54 -119 -175 -187 -269 -318 -435 -456 -722 -380 -790 35 -32 112 -31 251 3 854 210 1625 199 2264 -33 226 -82 513 -230 694 -359 36 -25 66 -45 67 -43 2 1 -2 52 -7 112 -128 1428 -1077 2344 -2879 2778 -264 64 -979 177 -1118 177 l-33 0 23 -40z"/>
        <path d="M2971 4811 c193 -275 289 -460 370 -710 91 -284 93 -506 7 -866 -48 -201 -56 -317 -24 -341 23 -16 76 -19 76 -4 0 6 -9 10 -19 10 -11 0 -29 12 -40 26 -74 94 41 340 372 797 173 240 257 373 257 409 0 80 -360 365 -678 537 -62 34 -127 67 -145 75 -18 8 -68 30 -111 50 -65 30 -77 33 -65 17z"/>
        <path d="M10235 4420 c-66 -5 -281 -16 -477 -24 -436 -19 -624 -38 -1063 -107 -104 -17 -282 -41 -395 -55 -341 -40 -436 -57 -809 -145 -165 -39 -406 -89 -428 -89 -5 0 -44 -142 -40 -146 2 -2 26 0 53 5 99 19 645 102 859 131 455 61 951 114 1350 145 149 12 267 28 405 55 107 21 267 46 355 55 88 9 239 25 335 37 223 26 497 28 655 4 176 -27 283 -57 510 -141 45 -17 -63 78 -120 105 -79 38 -429 135 -558 155 -121 19 -460 27 -632 15z"/>
        <path d="M1129 4278 c-46 -34 -127 -105 -180 -158 -102 -102 -241 -261 -234 -269 3 -2 24 18 47 45 89 103 217 230 323 319 163 137 184 166 44 63z"/>
        <path d="M1158 4245 c-119 -92 -266 -231 -356 -337 -68 -82 -79 -114 -49 -145 22 -22 100 39 142 111 56 96 145 210 261 334 58 61 104 112 102 112 -2 0 -47 -34 -100 -75z"/>
        <path d="M1865 4176 c-186 -64 -329 -131 -465 -220 -101 -65 -141 -86 -167 -86 -62 0 -54 48 29 157 26 35 45 63 42 63 -3 0 -40 -23 -82 -52 -77 -52 -237 -203 -282 -267 -25 -36 -22 -35 45 9 22 15 72 41 110 59 l70 32 -70 -72 c-38 -39 -61 -69 -50 -65 70 26 167 38 270 33 130 -6 417 -74 580 -138 195 -76 320 -184 470 -406 49 -73 91 -133 94 -133 16 0 122 68 115 73 -5 2 -42 15 -82 27 -117 34 -141 76 -76 135 l36 33 -54 20 c-29 11 -73 25 -96 32 -24 6 -60 26 -79 44 -31 28 -35 37 -29 61 11 42 66 90 135 116 33 13 57 27 53 31 -18 18 -164 30 -292 24 -138 -6 -177 1 -188 33 -2 7 26 42 63 78 l68 65 -54 -6 c-324 -34 -379 -31 -379 16 1 61 143 191 327 298 83 49 68 50 -62 6z"/>
        <path d="M9175 4014 c-378 -18 -718 -46 -1195 -100 -349 -38 -961 -123 -973 -133 -8 -8 -23 -171 -15 -171 3 0 135 16 294 35 369 45 895 98 1234 125 356 27 420 35 552 70 62 16 154 36 204 44 375 65 1065 60 1509 -10 l40 -7 -29 31 c-58 62 -191 89 -505 102 -238 10 -1005 19 -1116 14z"/>
        <path d="M651 3796 c-12 -18 -24 -47 -27 -64 -6 -29 -4 -31 34 -42 24 -6 51 -23 66 -41 30 -35 43 -34 105 11 34 25 41 36 41 63 0 51 -16 60 -59 31 -19 -13 -42 -24 -50 -24 -18 0 -40 30 -41 56 0 22 -18 44 -36 44 -7 0 -22 -15 -33 -34z"/>
        <path d="M498 3798 c-18 -29 -32 -67 -53 -140 -29 -107 -60 -61 -53 81 1 39 0 71 -4 71 -11 0 -46 -102 -57 -166 -5 -32 -13 -105 -17 -160 -3 -56 -10 -107 -14 -114 -14 -23 -39 -2 -51 42 -20 71 -22 23 -4 -78 9 -52 19 -94 21 -94 7 0 31 56 38 89 9 50 98 197 160 266 30 33 51 62 45 63 -12 5 -11 55 2 111 11 51 7 61 -13 29z"/>
        <path d="M982 3753 c-114 -77 -198 -171 -174 -195 11 -11 91 53 135 108 17 22 49 58 71 82 49 51 39 53 -32 5z"/>
        <path d="M1175 3744 c-16 -3 -63 -14 -103 -26 -57 -17 -80 -29 -107 -60 -53 -58 -47 -72 19 -42 48 22 156 44 156 32 0 -2 -36 -30 -80 -62 -69 -50 -80 -64 -85 -95 -4 -20 -8 -47 -11 -61 -9 -52 8 -54 89 -10 43 23 77 38 77 33 0 -5 -11 -25 -25 -45 -14 -20 -25 -38 -25 -40 0 -2 31 -2 70 0 126 7 275 -41 418 -135 144 -95 375 -294 485 -418 169 -191 297 -384 425 -640 l75 -149 19 54 c10 30 49 119 88 197 54 110 83 156 129 205 71 76 102 92 199 107 79 12 174 51 249 102 48 33 183 157 183 168 0 3 -19 5 -43 3 -65 -5 -89 19 -95 94 -2 32 3 90 11 127 10 51 11 65 2 55 -72 -77 -253 -305 -308 -388 -64 -97 -69 -102 -62 -65 3 22 13 50 21 63 19 28 13 28 -37 -4 -23 -14 -71 -37 -107 -51 -36 -13 -77 -32 -91 -42 -62 -43 -74 -40 -25 6 29 28 79 61 117 78 37 17 67 32 67 35 0 3 -32 13 -72 22 -154 37 -259 131 -428 383 -233 346 -351 422 -833 536 -128 30 -286 44 -362 33z"/>
        <path d="M570 3673 c-26 -9 -133 -141 -190 -236 -52 -87 -55 -95 -55 -160 0 -56 -2 -65 -12 -50 -7 9 -14 15 -16 12 -2 -2 -14 -22 -27 -43 -13 -22 -55 -78 -94 -125 -122 -152 -203 -361 -166 -431 10 -18 14 -17 97 15 164 65 250 140 329 286 54 101 79 126 167 171 81 40 114 66 137 105 20 34 40 43 40 18 0 -26 -63 -87 -145 -141 -91 -59 -134 -102 -195 -193 -84 -125 -161 -190 -304 -256 -70 -33 -71 -34 -43 -44 72 -28 124 -11 408 128 124 61 224 116 250 140 25 21 82 84 128 139 45 55 93 108 107 117 21 14 24 23 24 80 0 64 -6 75 -26 55 -14 -14 -42 -2 -49 20 -3 11 1 33 10 50 12 23 13 35 4 51 -7 13 -8 39 -4 66 l7 45 -30 -17 c-57 -34 -80 1 -42 63 31 50 24 56 -21 20 -47 -38 -75 -31 -73 19 1 26 -1 29 -22 25 -17 -3 -30 4 -49 27 -34 39 -98 59 -145 44z m-20 -320 c0 -29 -43 -96 -71 -112 -40 -22 -63 -8 -56 35 7 43 22 63 62 80 42 19 65 17 65 -3z m-427 -469 c4 -4 -2 -19 -13 -34 -11 -15 -25 -38 -30 -51 -9 -20 -10 -17 -6 19 5 54 29 86 49 66z"/>
        <path d="M971 3584 c-31 -16 -61 -40 -72 -58 -40 -66 -22 -62 74 19 83 70 83 81 -2 39z"/>
        <path d="M7690 3580 c-201 -12 -580 -40 -650 -48 l-55 -7 2 -39 c2 -22 4 -40 6 -42 1 -2 90 2 197 9 271 16 1411 15 1665 -1 110 -7 308 -26 440 -42 251 -30 447 -42 442 -26 -11 34 -165 74 -499 131 -357 60 -447 67 -943 70 -247 2 -520 -1 -605 -5z"/>
        <path d="M1028 3381 c-26 -17 -54 -43 -62 -60 -20 -38 -20 -41 3 -41 11 0 33 17 49 38 35 45 66 92 60 92 -2 0 -25 -13 -50 -29z"/>
        <path d="M3065 3326 c-238 -82 -352 -128 -476 -192 -128 -66 -125 -63 -92 -101 l28 -33 95 34 c52 18 187 69 300 114 113 44 237 90 275 103 39 12 71 22 72 23 1 1 9 30 17 64 10 45 11 62 3 61 -7 0 -106 -33 -222 -73z"/>
        <path d="M7230 3379 c-85 -4 -174 -11 -198 -14 -37 -5 -41 -9 -38 -28 3 -12 10 -53 16 -92 6 -38 22 -119 37 -179 l25 -108 117 7 c126 7 400 -8 551 -30 52 -8 96 -12 98 -10 2 2 -4 14 -13 28 -8 13 -18 46 -21 73 -4 39 0 57 18 89 61 104 283 193 633 254 l110 19 -590 0 c-324 -1 -660 -5 -745 -9z"/>
        <path d="M1088 3343 c-44 -7 -58 -37 -58 -127 l0 -79 -42 -41 c-65 -63 -132 -146 -116 -146 26 1 128 48 256 119 128 70 246 121 280 121 9 0 -13 -17 -50 -37 -38 -19 -68 -40 -68 -44 0 -5 20 -9 43 -9 67 0 190 -35 269 -77 81 -42 198 -149 335 -304 211 -240 318 -433 437 -784 85 -248 164 -394 276 -507 50 -50 179 -142 187 -134 2 2 -10 30 -25 62 -16 32 -37 82 -46 109 -14 41 -26 56 -68 85 -65 44 -121 114 -148 187 -19 51 -21 71 -17 163 l5 105 -68 140 c-217 442 -456 730 -847 1021 -194 145 -368 202 -535 177z"/>
        <path d="M3185 3083 c-194 -48 -559 -183 -542 -200 3 -2 110 14 239 37 l233 42 52 57 c29 31 52 59 53 64 0 7 -4 8 -35 0z"/>
        <path d="M4580 3063 c-368 -25 -636 -66 -970 -147 l-135 -33 -80 -82 c-136 -140 -256 -208 -418 -237 -43 -8 -91 -23 -107 -34 -64 -46 -123 -127 -190 -262 -100 -203 -125 -281 -125 -398 0 -83 4 -103 27 -153 17 -36 50 -79 84 -113 53 -50 60 -54 105 -54 36 0 54 -5 70 -21 50 -50 202 17 341 149 l90 87 28 -33 c35 -43 50 -93 51 -178 0 -38 3 -76 7 -86 4 -9 31 -35 60 -59 l54 -42 71 23 c100 32 226 96 348 179 102 69 171 124 380 306 l104 90 155 52 c266 89 469 118 628 89 101 -18 157 -49 280 -157 133 -115 169 -139 213 -139 l37 0 22 -67 c45 -142 117 -259 192 -316 29 -23 64 -30 322 -67 158 -23 290 -39 292 -37 2 2 21 46 43 98 27 64 48 99 65 110 l25 15 -28 30 -29 29 -21 320 c-24 366 -25 398 -10 372 15 -25 62 -47 80 -37 18 12 13 17 -101 86 -125 76 -385 201 -535 257 -387 145 -821 227 -1207 227 -231 0 -420 -32 -616 -102 -80 -29 -89 -36 -190 -137 -97 -96 -233 -201 -319 -245 -24 -12 -34 -13 -39 -4 -4 7 0 16 11 22 116 67 238 161 332 255 l109 108 124 41 c205 67 299 83 522 89 219 6 372 -5 598 -43 439 -74 856 -223 1211 -434 l100 -59 -3 77 -3 77 -130 87 c-221 149 -519 290 -785 373 -320 99 -793 153 -1140 128z"/>
        <path d="M10890 2988 c71 -27 110 -55 110 -78 0 -17 -3 -17 -62 2 -41 13 -102 21 -173 24 l-110 5 53 -25 c30 -15 52 -31 52 -41 0 -12 8 -14 38 -10 102 13 180 16 322 16 l155 -1 -30 20 c-83 55 -266 111 -363 109 l-47 0 55 -21z"/>
        <path d="M11190 2997 c0 -2 22 -18 50 -36 29 -19 52 -42 56 -56 5 -21 13 -24 72 -30 37 -4 94 -11 126 -16 33 -4 61 -7 63 -5 7 6 -92 64 -144 85 -61 24 -223 66 -223 58z"/>
        <path d="M11520 2968 c45 -35 66 -65 72 -102 2 -16 19 -23 93 -37 118 -23 121 -23 104 -3 -47 57 -206 152 -284 170 -28 6 -27 5 15 -28z"/>
        <path d="M2540 2982 c0 -12 64 -72 77 -72 6 0 37 12 69 27 l59 26 -45 7 c-98 15 -160 20 -160 12z"/>
        <path d="M2980 2884 c-103 -43 -196 -55 -234 -30 -28 18 -56 21 -56 7 0 -13 97 -48 174 -62 57 -11 70 -10 104 5 34 16 126 117 105 116 -5 -1 -46 -17 -93 -36z"/>
        <path d="M11879 2872 c43 -40 53 -55 49 -75 -4 -22 1 -26 56 -44 34 -12 78 -28 99 -37 20 -9 37 -12 37 -8 0 15 -112 115 -165 149 -28 18 -68 39 -90 49 l-40 16 54 -50z"/>
        <path d="M10403 2877 c-59 -11 -71 -27 -20 -27 17 0 46 -7 62 -16 28 -15 39 -14 147 2 65 10 114 22 110 25 -12 11 -136 29 -193 28 -30 -1 -78 -6 -106 -12z"/>
        <path d="M7103 2868 c2 -7 17 -47 32 -89 l28 -76 331 -6 c209 -4 412 -14 551 -27 121 -11 272 -22 335 -23 85 -3 125 -8 153 -22 47 -22 55 -16 25 19 -17 20 -63 40 -183 81 -180 60 -346 97 -545 119 -310 35 -737 49 -727 24z"/>
        <path d="M10940 2844 c-650 -57 -1173 -241 -1695 -595 -176 -119 -228 -166 -105 -92 380 226 986 418 1575 498 193 26 494 31 650 10 410 -54 720 -195 855 -387 69 -98 94 -179 94 -300 0 -54 1 -98 2 -98 11 0 97 158 113 207 35 104 22 218 -37 327 -38 72 -145 173 -237 225 -140 80 -380 148 -656 186 -110 15 -466 27 -559 19z"/>
        <path d="M10240 2809 c-31 -4 -83 -18 -115 -30 l-59 -22 44 -13 c44 -13 84 -5 279 52 42 13 -77 23 -149 13z"/>
        <path d="M12159 2780 c11 -25 21 -61 21 -80 0 -29 6 -39 31 -54 16 -10 57 -40 89 -67 l59 -49 -16 37 c-30 74 -84 145 -167 223 l-37 35 20 -45z"/>
        <path d="M1739 2757 c-174 -109 -414 -307 -641 -528 -116 -114 -134 -148 -103 -195 21 -33 59 -48 171 -71 73 -15 139 -18 374 -18 358 0 790 30 790 54 -1 47 9 46 -472 46 -340 0 -484 4 -578 15 l-125 15 242 6 c304 8 856 49 871 64 6 5 -63 164 -82 191 -11 15 -24 12 -147 -29 -168 -58 -333 -100 -514 -132 -172 -30 -365 -54 -365 -45 0 11 274 138 425 197 133 52 427 143 463 143 42 1 46 16 14 61 -16 24 -46 62 -65 84 l-35 40 -68 -33 c-136 -66 -362 -199 -541 -319 -101 -67 -181 -117 -178 -113 3 5 56 53 118 106 141 121 352 280 490 368 115 73 116 75 65 124 l-25 22 -84 -53z"/>
        <path d="M9959 2699 c-31 -4 -72 -15 -90 -23 l-34 -14 56 -1 c52 -1 143 21 164 40 11 11 -17 10 -96 -2z"/>
        <path d="M9760 2612 c-34 -16 -34 -16 -10 -20 14 -1 46 6 70 17 l45 20 -35 -1 c-19 0 -51 -7 -70 -16z"/>
        <path d="M9603 2536 c-45 -16 -51 -26 -17 -26 16 1 45 9 64 20 32 18 33 19 10 18 -14 0 -39 -6 -57 -12z"/>
        <path d="M9480 2463 c-25 -11 -30 -17 -18 -20 9 -2 34 5 55 16 47 25 16 28 -37 4z"/>
        <path d="M1973 2430 c-208 -53 -526 -171 -669 -249 l-39 -21 60 6 c181 19 485 87 690 155 160 53 155 49 122 98 -15 23 -33 41 -40 41 -6 -1 -62 -14 -124 -30z"/>
        <path d="M7397 2290 c-38 -5 -71 -11 -74 -14 -3 -2 10 -26 29 -52 18 -27 36 -52 40 -58 4 -6 32 3 70 22 77 40 157 62 221 62 109 0 -7 34 -148 44 -38 2 -101 1 -138 -4z"/>
        <path d="M6574 2198 c3 -24 13 -164 22 -313 16 -265 17 -271 42 -297 22 -24 30 -26 67 -21 55 7 139 -18 193 -57 25 -18 64 -65 96 -114 30 -47 65 -91 78 -99 13 -9 52 -23 88 -31 74 -19 108 -47 149 -122 25 -47 30 -50 148 -101 337 -145 697 -235 1113 -278 481 -49 1251 -35 1695 30 126 19 331 58 319 61 -5 2 -164 8 -354 14 -612 19 -996 59 -1450 150 -707 143 -1283 396 -1745 766 -118 95 -358 329 -415 406 -19 26 -39 48 -43 48 -5 0 -6 -19 -3 -42z"/>
        <path d="M5142 1982 c-70 -114 -90 -153 -126 -247 -61 -164 -106 -410 -106 -585 0 -90 0 -90 38 -131 20 -23 90 -84 156 -136 113 -91 206 -178 206 -194 0 -4 -12 -22 -26 -39 -15 -17 -25 -32 -23 -34 10 -9 115 -26 159 -26 48 0 49 1 55 33 4 22 0 53 -13 89 -16 45 -34 70 -91 124 -53 50 -81 85 -109 142 -35 72 -37 81 -35 160 3 97 -7 123 -67 174 -22 19 -40 42 -40 50 0 25 46 150 80 218 44 88 98 166 177 256 l66 75 -34 35 c-41 43 -121 98 -171 118 l-36 16 -60 -98z"/>
        <path d="M7660 2043 c-110 -10 -140 -15 -140 -23 0 -12 178 -150 194 -150 6 0 17 9 23 20 34 53 222 140 304 140 16 0 29 5 29 10 0 9 -321 12 -410 3z"/>
        <path d="M5396 1825 c-109 -124 -190 -260 -235 -397 l-22 -67 44 -41 c58 -53 71 -85 65 -162 -9 -116 33 -209 137 -306 80 -76 109 -128 109 -204 1 -56 2 -57 26 -51 51 11 109 42 149 78 22 21 41 40 41 44 0 3 -14 12 -30 19 -40 18 -90 69 -107 110 -7 18 -18 67 -23 108 -15 119 -28 152 -76 204 l-45 48 38 12 c91 29 179 85 261 167 45 45 82 86 82 92 0 6 -17 36 -37 68 -20 31 -51 98 -68 147 -18 50 -37 91 -41 92 -5 1 -26 5 -46 9 -21 3 -67 25 -102 49 l-65 43 -55 -62z"/>
        <path d="M12114 1788 c-46 -71 -115 -190 -112 -194 2 -2 39 19 81 46 72 46 77 51 66 72 -7 12 -9 41 -6 70 3 26 5 48 3 48 -2 0 -16 -19 -32 -42z"/>
        <path d="M8370 1808 c-47 -5 -193 -6 -325 -3 -141 3 -235 2 -230 -4 12 -11 258 -147 341 -189 l62 -31 17 44 c21 57 87 115 180 160 38 19 63 34 55 33 -8 0 -53 -5 -100 -10z"/>
        <path d="M3210 1674 c-30 -30 -76 -71 -102 -91 -60 -44 -58 -49 68 -149 113 -90 146 -135 152 -207 4 -49 2 -56 -39 -107 -70 -90 -357 -356 -579 -536 -83 -67 -294 -220 -313 -227 -21 -7 14 -38 77 -68 39 -18 65 -25 75 -20 9 5 33 16 53 26 21 9 47 33 59 52 20 32 174 153 299 236 126 83 228 186 320 322 58 87 195 322 204 352 11 36 -21 90 -85 140 -33 25 -59 46 -60 47 0 1 -4 46 -8 101 -7 97 -30 173 -57 182 -5 2 -34 -22 -64 -53z"/>
        <path d="M11889 1646 c-50 -39 -167 -172 -158 -180 2 -2 50 16 105 41 l102 45 -5 37 c-3 24 1 49 11 69 9 18 13 32 9 32 -5 0 -33 -20 -64 -44z"/>
        <path d="M11462 1473 c-100 -80 -181 -148 -179 -149 4 -4 119 26 215 56 70 21 72 23 72 55 0 37 20 90 56 146 13 22 23 39 21 39 -1 0 -84 -66 -185 -147z"/>
        <path d="M8265 1563 c22 -20 450 -204 505 -218 24 -6 25 -5 22 39 -6 70 30 117 133 175 15 9 -4 9 -80 4 -115 -9 -503 -7 -555 2 -21 4 -31 3 -25 -2z"/>
        <path d="M2992 1518 c-23 -11 -65 -22 -93 -25 -43 -5 -53 -3 -70 16 -17 18 -59 30 -59 16 0 -20 66 -177 91 -216 33 -52 103 -109 165 -135 38 -16 97 -15 138 1 16 7 17 5 7 -12 -22 -43 -94 -48 -184 -14 -22 9 -33 5 -74 -23 -37 -25 -63 -58 -113 -139 -94 -154 -178 -271 -290 -400 -95 -109 -129 -137 -170 -137 -25 0 -25 -14 1 -56 12 -20 26 -31 32 -27 42 23 215 148 299 215 235 187 577 503 618 570 44 72 12 152 -94 237 -39 31 -91 77 -116 102 l-45 46 -43 -19z"/>
        <path d="M6640 1515 c-19 -10 -36 -39 -62 -103 l-35 -90 70 -11 c137 -23 314 -94 473 -192 60 -37 86 -59 92 -78 14 -49 7 -204 -12 -271 -32 -114 -32 -113 -5 -105 69 21 121 111 140 240 18 124 17 132 -24 216 -40 83 -60 99 -154 120 -68 14 -91 33 -148 122 -65 98 -82 116 -140 143 -58 27 -154 32 -195 9z"/>
        <path d="M11133 1441 c-72 -48 -161 -111 -198 -140 -78 -59 -75 -60 70 -36 138 23 132 21 139 59 6 31 53 110 106 179 12 15 20 27 18 27 -3 0 -63 -40 -135 -89z"/>
        <path d="M3825 1499 c-16 -11 -60 -36 -97 -55 -59 -30 -68 -38 -68 -62 1 -57 23 -122 95 -272 77 -164 105 -257 126 -419 l12 -94 70 6 c38 3 71 8 73 10 6 5 -35 278 -46 311 -6 16 -10 45 -10 65 0 20 -6 70 -14 111 -8 41 -22 143 -31 225 -23 196 -39 221 -110 174z"/>
        <path d="M10787 1381 c-38 -26 -120 -76 -183 -110 -63 -35 -114 -65 -112 -66 2 -2 195 19 326 35 1 0 0 11 -4 25 -9 37 3 88 31 129 13 20 21 35 17 35 -4 -1 -38 -22 -75 -48z"/>
        <path d="M9075 1374 c-104 -24 -198 -44 -209 -44 -63 0 103 -54 232 -75 36 -6 42 -4 42 11 0 30 75 90 149 119 39 16 71 30 71 32 0 13 -125 -5 -285 -43z"/>
        <path d="M3560 1373 c-35 -13 -65 -25 -67 -26 -1 -2 3 -19 9 -39 7 -23 7 -45 1 -64 -9 -26 -3 -37 63 -126 129 -173 194 -342 180 -465 l-6 -53 65 0 66 0 -5 33 c-3 17 -8 57 -11 87 -11 106 -54 249 -104 348 -70 140 -100 218 -108 279 -3 29 -9 52 -12 52 -3 -1 -35 -12 -71 -26z"/>
        <path d="M10010 1369 c-91 -42 -320 -172 -320 -181 0 -5 70 -8 155 -8 l155 0 -17 34 c-22 46 -7 82 59 141 28 25 46 45 42 45 -5 0 -38 -14 -74 -31z"/>
        <path d="M10519 1390 c-9 -5 -85 -36 -170 -68 -151 -58 -299 -126 -299 -138 0 -7 253 3 333 12 l47 6 0 41 c0 36 6 47 58 99 57 56 64 67 31 48z"/>
        <path d="M5960 1370 c0 -4 33 -38 73 -77 141 -137 256 -179 547 -203 187 -15 300 -34 347 -58 40 -21 40 -22 47 -89 9 -91 24 -148 53 -206 21 -42 64 -79 78 -66 8 9 35 181 35 226 0 82 -19 130 -67 172 -87 78 -252 147 -485 207 -107 27 -628 105 -628 94z"/>
        <path d="M9603 1350 c-61 -16 -169 -48 -240 -71 -150 -49 -148 -51 49 -72 l128 -13 25 38 c22 33 90 90 161 135 31 19 0 15 -123 -17z"/>
        <path d="M6888 857 c-26 -26 -50 -58 -52 -70 -2 -12 -12 -57 -22 -101 -11 -53 -14 -87 -8 -104 13 -36 32 -39 36 -5 2 18 12 32 29 40 41 20 59 47 71 104 12 61 13 154 1 172 -6 8 -23 -3 -55 -36z"/>
        <path d="M6956 661 c-34 -87 -89 -172 -149 -230 -45 -43 -47 -44 -83 -33 -44 13 -77 3 -100 -33 -9 -14 -45 -48 -80 -76 -34 -27 -72 -65 -83 -83 -20 -32 -28 -86 -15 -99 4 -3 28 12 54 34 l48 40 62 -12 c56 -11 64 -10 88 8 18 14 28 31 30 54 2 28 19 50 101 129 70 68 114 122 155 189 62 101 62 100 17 159 l-17 24 -28 -71z"/>
        <path d="M7245 684 l-40 -41 3 -113 c4 -114 -8 -192 -33 -220 -16 -19 -65 -141 -65 -163 0 -23 39 -47 77 -47 l33 0 -20 -40 c-11 -22 -18 -40 -14 -40 23 0 77 38 95 66 48 78 73 219 47 267 -6 12 -12 53 -14 92 -3 90 -20 274 -25 278 -2 1 -22 -16 -44 -39z"/>
        <path d="M5695 669 c-22 -22 -64 -51 -94 -66 -132 -62 -197 -125 -190 -185 2 -12 -7 -43 -20 -67 -27 -52 -23 -97 14 -131 l25 -23 0 27 c0 20 12 41 40 68 28 28 42 52 46 80 6 32 14 43 43 59 52 28 134 89 151 113 34 46 50 125 32 153 -6 9 -19 1 -47 -28z"/>
        <path d="M7014 531 c-72 -129 -127 -201 -155 -201 -34 0 -58 -19 -80 -63 -46 -88 -65 -231 -35 -256 11 -9 15 -6 21 16 14 60 31 73 93 73 104 0 155 48 167 159 9 76 29 147 70 239 18 42 36 89 40 103 6 24 4 27 -28 31 -35 4 -35 4 -93 -101z"/>
        <path d="M7150 583 c-6 -27 -25 -79 -42 -118 -37 -82 -58 -157 -58 -203 0 -29 2 -32 19 -22 11 5 29 10 40 10 16 0 21 6 21 25 0 14 9 38 20 53 27 38 39 102 40 210 0 72 -3 92 -14 92 -8 0 -19 -20 -26 -47z"/>
        <path d="M5170 564 c-71 -45 -199 -94 -277 -107 -64 -10 -125 -3 -190 24 -31 13 -33 12 -87 -39 -30 -29 -77 -62 -103 -73 -97 -41 -163 -105 -163 -158 0 -20 3 -19 48 13 26 19 90 54 142 78 52 25 117 59 144 76 56 36 100 41 144 15 28 -16 35 -16 128 0 80 14 122 29 219 76 66 33 142 67 169 77 l49 18 -79 17 c-43 10 -81 18 -84 17 -3 0 -30 -15 -60 -34z"/>
        <path d="M3953 583 l-53 -4 -25 -53 c-14 -29 -25 -57 -25 -63 0 -5 -9 -19 -21 -31 -17 -19 -27 -22 -67 -17 -55 7 -60 4 -96 -52 -18 -29 -42 -51 -79 -69 -28 -14 -60 -34 -71 -43 -20 -17 -50 -70 -44 -77 3 -2 23 4 46 13 34 13 47 14 68 5 34 -16 94 -15 179 3 38 8 90 15 114 15 49 0 101 27 119 62 12 24 31 144 39 256 4 56 3 62 -14 60 -10 -1 -42 -3 -70 -5z"/>
        <path d="M3685 523 c-27 -31 -77 -74 -109 -95 -50 -32 -67 -38 -114 -38 -31 0 -71 5 -89 12 -23 9 -42 9 -61 2 -19 -7 -38 -6 -62 2 -38 13 -58 7 -98 -29 -12 -12 -55 -37 -95 -57 -48 -23 -79 -46 -94 -69 -13 -19 -22 -36 -20 -37 11 -11 88 24 116 53 59 59 81 66 246 73 204 10 326 33 368 71 24 22 41 29 74 29 36 0 46 5 72 37 17 20 35 49 40 64 9 26 8 27 -36 33 -78 10 -86 8 -138 -51z"/>
        <path d="M5340 521 c-64 -26 -146 -65 -183 -85 -45 -25 -97 -44 -159 -57 -111 -22 -156 -23 -182 -4 -31 23 -66 18 -130 -21 -32 -19 -81 -46 -108 -60 -28 -14 -70 -44 -94 -66 -46 -42 -60 -70 -22 -44 31 22 64 20 99 -7 42 -30 155 -31 214 -1 32 17 46 19 70 12 37 -12 251 -20 320 -12 44 5 56 12 99 58 93 97 123 146 129 205 5 56 14 69 77 113 48 33 -9 19 -130 -31z"/>
        <path d="M1803 416 c-29 -26 -53 -36 -102 -44 -67 -12 -114 -40 -150 -91 -25 -35 -42 -77 -34 -85 10 -9 74 35 118 80 30 32 55 46 100 59 33 10 74 28 92 41 39 30 53 30 89 2 28 -22 34 -23 219 -20 104 2 191 5 193 7 2 1 -7 19 -19 39 -24 42 -37 44 -119 16 -79 -27 -228 -22 -286 9 -51 28 -57 27 -101 -13z"/>
        <path d="M1847 356 c-14 -15 -43 -30 -71 -36 -53 -12 -116 -41 -134 -62 -6 -8 -16 -26 -22 -42 l-10 -28 34 21 34 21 14 -21 c12 -18 29 -23 117 -32 86 -8 108 -7 134 5 25 12 78 16 232 17 110 1 220 7 244 12 77 17 104 41 59 53 -13 3 -48 22 -78 42 l-55 36 -195 -6 c-147 -5 -200 -3 -216 7 -12 6 -31 18 -43 25 -19 11 -24 10 -44 -12z"/>
        <path d="M3520 340 c-52 -10 -144 -19 -205 -19 -60 -1 -127 -6 -148 -12 -42 -11 -123 -78 -110 -90 18 -17 70 -20 82 -5 11 13 15 13 26 2 18 -18 112 -29 172 -21 71 10 108 23 129 46 11 12 52 39 92 61 39 22 72 44 72 49 0 5 -3 8 -7 8 -5 -1 -51 -10 -103 -19z"/>
    </g>
</svg>